<mxfile host="Electron" modified="2024-04-22T11:48:32.499Z" agent="Mozilla/5.0 (Macintosh; Intel Mac OS X 10_15_7) AppleWebKit/537.36 (KHTML, like Gecko) draw.io/24.2.5 Chrome/120.0.6099.109 Electron/28.1.0 Safari/537.36" etag="rw3YTg6GIWD4ROYm1mnm" version="24.2.5" type="device">
  <diagram id="gupzscTKQYmE7RzXdGh2" name="第 1 页">
    <mxGraphModel dx="2555" dy="1858" grid="1" gridSize="10" guides="1" tooltips="1" connect="1" arrows="1" fold="1" page="1" pageScale="1" pageWidth="3300" pageHeight="4681" math="0" shadow="0">
      <root>
        <mxCell id="0" />
        <mxCell id="1" parent="0" />
        <mxCell id="3" value="AboutPage.vue&lt;div&gt;(Second Page)&lt;/div&gt;" style="rounded=1;whiteSpace=wrap;html=1;" parent="1" vertex="1">
          <mxGeometry x="790" y="450" width="120" height="60" as="geometry" />
        </mxCell>
        <mxCell id="5" value="TopBanner.vue&lt;div&gt;(Router Baner)&lt;br&gt;&lt;/div&gt;" style="rounded=1;whiteSpace=wrap;html=1;" parent="1" vertex="1">
          <mxGeometry x="950" y="450" width="120" height="60" as="geometry" />
        </mxCell>
        <mxCell id="12" value="Router.js&lt;br&gt;(index.js)" style="ellipse;whiteSpace=wrap;html=1;aspect=fixed;rounded=1;" parent="1" vertex="1">
          <mxGeometry x="950" y="670" width="120" height="120" as="geometry" />
        </mxCell>
        <mxCell id="13" value="index.html&lt;br&gt;(&amp;lt;div id=&quot;app&quot;&amp;gt;&amp;lt;/div&amp;gt;)" style="shape=parallelogram;perimeter=parallelogramPerimeter;whiteSpace=wrap;html=1;fixedSize=1;rounded=1;" parent="1" vertex="1">
          <mxGeometry x="930" y="880" width="160" height="70" as="geometry" />
        </mxCell>
        <mxCell id="14" value="" style="endArrow=classic;html=1;entryX=1;entryY=0;entryDx=0;entryDy=0;exitX=0.5;exitY=1;exitDx=0;exitDy=0;" parent="1" source="4" target="12" edge="1">
          <mxGeometry width="50" height="50" relative="1" as="geometry">
            <mxPoint x="1110" y="610" as="sourcePoint" />
            <mxPoint x="1160" y="560" as="targetPoint" />
          </mxGeometry>
        </mxCell>
        <mxCell id="15" value="" style="endArrow=classic;html=1;entryX=0.5;entryY=0;entryDx=0;entryDy=0;exitX=0.5;exitY=1;exitDx=0;exitDy=0;" parent="1" source="5" target="12" edge="1">
          <mxGeometry width="50" height="50" relative="1" as="geometry">
            <mxPoint x="970" y="630" as="sourcePoint" />
            <mxPoint x="1020" y="580" as="targetPoint" />
          </mxGeometry>
        </mxCell>
        <mxCell id="16" value="" style="endArrow=classic;html=1;exitX=0.5;exitY=1;exitDx=0;exitDy=0;entryX=0;entryY=0;entryDx=0;entryDy=0;" parent="1" source="3" target="12" edge="1">
          <mxGeometry width="50" height="50" relative="1" as="geometry">
            <mxPoint x="1110" y="680" as="sourcePoint" />
            <mxPoint x="1150" y="750" as="targetPoint" />
          </mxGeometry>
        </mxCell>
        <mxCell id="19" value="" style="endArrow=none;dashed=1;html=1;dashPattern=1 3;strokeWidth=2;exitX=1;exitY=0.5;exitDx=0;exitDy=0;entryX=0.5;entryY=0;entryDx=0;entryDy=0;" parent="1" source="12" edge="1" target="24">
          <mxGeometry width="50" height="50" relative="1" as="geometry">
            <mxPoint x="1060" y="750" as="sourcePoint" />
            <mxPoint x="1230" y="730" as="targetPoint" />
          </mxGeometry>
        </mxCell>
        <mxCell id="22" value="" style="endArrow=classic;html=1;exitX=0.5;exitY=1;exitDx=0;exitDy=0;entryX=0.5;entryY=0;entryDx=0;entryDy=0;" parent="1" source="12" target="13" edge="1">
          <mxGeometry relative="1" as="geometry">
            <mxPoint x="970" y="840" as="sourcePoint" />
            <mxPoint x="1070" y="840" as="targetPoint" />
          </mxGeometry>
        </mxCell>
        <mxCell id="23" value="&lt;font style=&quot;font-size: 14px;&quot;&gt;&lt;b&gt;Inject in index.html&#39;s div&lt;/b&gt;&lt;/font&gt;" style="edgeLabel;resizable=0;html=1;align=center;verticalAlign=middle;rounded=1;" parent="22" connectable="0" vertex="1">
          <mxGeometry relative="1" as="geometry" />
        </mxCell>
        <mxCell id="24" value="main.js (Boss)" style="shape=document;whiteSpace=wrap;html=1;boundedLbl=1;fontSize=14;rounded=1;" parent="1" vertex="1">
          <mxGeometry x="1200" y="875" width="120" height="80" as="geometry" />
        </mxCell>
        <mxCell id="hOZ_hyxgkWCZJ2gLWnIk-24" value="" style="endArrow=classic;startArrow=classic;html=1;rounded=0;entryX=-0.018;entryY=0.432;entryDx=0;entryDy=0;entryPerimeter=0;" edge="1" parent="1" target="24">
          <mxGeometry width="50" height="50" relative="1" as="geometry">
            <mxPoint x="1080" y="910" as="sourcePoint" />
            <mxPoint x="1130" y="860" as="targetPoint" />
          </mxGeometry>
        </mxCell>
        <mxCell id="hOZ_hyxgkWCZJ2gLWnIk-25" value="Vue-CLi=Node.js+WebPack" style="swimlane;whiteSpace=wrap;html=1;" vertex="1" parent="1">
          <mxGeometry x="480" y="290" width="870" height="680" as="geometry" />
        </mxCell>
        <mxCell id="4" value="HomeView.vue&lt;br&gt;(First Page)" style="rounded=1;whiteSpace=wrap;html=1;movable=1;resizable=1;rotatable=1;deletable=1;editable=1;connectable=1;" parent="1" vertex="1">
          <mxGeometry x="1110" y="450" width="120" height="60" as="geometry" />
        </mxCell>
        <mxCell id="hOZ_hyxgkWCZJ2gLWnIk-27" value="AboutBanner.vue&lt;div&gt;(Router Banner)&lt;/div&gt;" style="rounded=1;whiteSpace=wrap;html=1;" vertex="1" parent="1">
          <mxGeometry x="510" y="450" width="120" height="60" as="geometry" />
        </mxCell>
        <mxCell id="hOZ_hyxgkWCZJ2gLWnIk-28" value="" style="endArrow=none;dashed=1;html=1;dashPattern=1 3;strokeWidth=2;rounded=0;entryX=1;entryY=0.5;entryDx=0;entryDy=0;exitX=0;exitY=0.5;exitDx=0;exitDy=0;" edge="1" parent="1" source="3" target="hOZ_hyxgkWCZJ2gLWnIk-27">
          <mxGeometry width="50" height="50" relative="1" as="geometry">
            <mxPoint x="700" y="440" as="sourcePoint" />
            <mxPoint x="750" y="390" as="targetPoint" />
          </mxGeometry>
        </mxCell>
        <mxCell id="hOZ_hyxgkWCZJ2gLWnIk-49" style="edgeStyle=orthogonalEdgeStyle;rounded=0;orthogonalLoop=1;jettySize=auto;html=1;entryX=0;entryY=1;entryDx=0;entryDy=0;" edge="1" parent="1" source="hOZ_hyxgkWCZJ2gLWnIk-29" target="12">
          <mxGeometry relative="1" as="geometry">
            <Array as="points">
              <mxPoint x="930" y="370" />
              <mxPoint x="930" y="772" />
            </Array>
          </mxGeometry>
        </mxCell>
        <mxCell id="hOZ_hyxgkWCZJ2gLWnIk-29" value="LeftSide.vue" style="rounded=1;whiteSpace=wrap;html=1;" vertex="1" parent="1">
          <mxGeometry x="720" y="340" width="120" height="60" as="geometry" />
        </mxCell>
        <mxCell id="hOZ_hyxgkWCZJ2gLWnIk-30" value="RightSide.vue" style="rounded=1;whiteSpace=wrap;html=1;" vertex="1" parent="1">
          <mxGeometry x="720" y="560" width="120" height="60" as="geometry" />
        </mxCell>
        <mxCell id="hOZ_hyxgkWCZJ2gLWnIk-36" value="" style="endArrow=none;dashed=1;html=1;dashPattern=1 3;strokeWidth=2;rounded=0;entryX=0;entryY=0.5;entryDx=0;entryDy=0;exitX=0.5;exitY=0;exitDx=0;exitDy=0;" edge="1" parent="1" source="hOZ_hyxgkWCZJ2gLWnIk-27" target="hOZ_hyxgkWCZJ2gLWnIk-29">
          <mxGeometry width="50" height="50" relative="1" as="geometry">
            <mxPoint x="790" y="500" as="sourcePoint" />
            <mxPoint x="840" y="450" as="targetPoint" />
          </mxGeometry>
        </mxCell>
        <mxCell id="hOZ_hyxgkWCZJ2gLWnIk-37" value="" style="endArrow=none;dashed=1;html=1;dashPattern=1 3;strokeWidth=2;rounded=0;exitX=0.5;exitY=1;exitDx=0;exitDy=0;" edge="1" parent="1" source="hOZ_hyxgkWCZJ2gLWnIk-27">
          <mxGeometry width="50" height="50" relative="1" as="geometry">
            <mxPoint x="790" y="500" as="sourcePoint" />
            <mxPoint x="720" y="590" as="targetPoint" />
          </mxGeometry>
        </mxCell>
        <mxCell id="hOZ_hyxgkWCZJ2gLWnIk-38" value="" style="endArrow=classic;html=1;rounded=0;exitX=0.5;exitY=1;exitDx=0;exitDy=0;entryX=0.5;entryY=0;entryDx=0;entryDy=0;" edge="1" parent="1" source="hOZ_hyxgkWCZJ2gLWnIk-29" target="3">
          <mxGeometry relative="1" as="geometry">
            <mxPoint x="760" y="480" as="sourcePoint" />
            <mxPoint x="880" y="450" as="targetPoint" />
          </mxGeometry>
        </mxCell>
        <mxCell id="hOZ_hyxgkWCZJ2gLWnIk-39" value="Router" style="edgeLabel;resizable=0;html=1;;align=center;verticalAlign=middle;" connectable="0" vertex="1" parent="hOZ_hyxgkWCZJ2gLWnIk-38">
          <mxGeometry relative="1" as="geometry" />
        </mxCell>
        <mxCell id="hOZ_hyxgkWCZJ2gLWnIk-40" value="" style="endArrow=classic;html=1;rounded=0;exitX=0.5;exitY=0;exitDx=0;exitDy=0;entryX=0.5;entryY=1;entryDx=0;entryDy=0;" edge="1" parent="1" source="hOZ_hyxgkWCZJ2gLWnIk-30" target="3">
          <mxGeometry relative="1" as="geometry">
            <mxPoint x="730" y="510" as="sourcePoint" />
            <mxPoint x="830" y="560" as="targetPoint" />
          </mxGeometry>
        </mxCell>
        <mxCell id="hOZ_hyxgkWCZJ2gLWnIk-41" value="Router" style="edgeLabel;resizable=0;html=1;;align=center;verticalAlign=middle;" connectable="0" vertex="1" parent="hOZ_hyxgkWCZJ2gLWnIk-40">
          <mxGeometry relative="1" as="geometry" />
        </mxCell>
        <mxCell id="hOZ_hyxgkWCZJ2gLWnIk-42" value="import...from" style="edgeLabel;resizable=0;html=1;;align=center;verticalAlign=middle;" connectable="0" vertex="1" parent="1">
          <mxGeometry x="629.9982897799953" y="539.9991448899976" as="geometry">
            <mxPoint x="-3" as="offset" />
          </mxGeometry>
        </mxCell>
        <mxCell id="hOZ_hyxgkWCZJ2gLWnIk-43" value="import...from" style="edgeLabel;resizable=0;html=1;;align=center;verticalAlign=middle;" connectable="0" vertex="1" parent="1">
          <mxGeometry x="629.9982897799953" y="419.99914488999764" as="geometry">
            <mxPoint x="-3" as="offset" />
          </mxGeometry>
        </mxCell>
        <mxCell id="hOZ_hyxgkWCZJ2gLWnIk-44" value="import...from" style="edgeLabel;resizable=0;html=1;;align=center;verticalAlign=middle;" connectable="0" vertex="1" parent="1">
          <mxGeometry x="719.9982897799953" y="479.99914488999764" as="geometry">
            <mxPoint x="-3" as="offset" />
          </mxGeometry>
        </mxCell>
        <mxCell id="hOZ_hyxgkWCZJ2gLWnIk-45" value="" style="endArrow=classic;html=1;rounded=0;exitX=0.5;exitY=1;exitDx=0;exitDy=0;entryX=-0.004;entryY=0.441;entryDx=0;entryDy=0;entryPerimeter=0;" edge="1" parent="1" source="hOZ_hyxgkWCZJ2gLWnIk-30" target="12">
          <mxGeometry width="50" height="50" relative="1" as="geometry">
            <mxPoint x="960" y="660" as="sourcePoint" />
            <mxPoint x="1010" y="610" as="targetPoint" />
          </mxGeometry>
        </mxCell>
      </root>
    </mxGraphModel>
  </diagram>
</mxfile>
